<svg class="logo" width="509" height="292" viewBox="0 0 509 292" fill="none" xmlns="http://www.w3.org/2000/svg">
    <path fill-rule="evenodd" clip-rule="evenodd" fill="#64b5f6" d="M348.488 124.691C347.537 125.748 346.601 126.818 345.679 127.902C342.369 132.141 338.895 136.236 335.268 140.177C329.435 146.516 323.207 152.459 316.632 157.972C304.727 167.955 291.682 176.531 277.778 183.506C277.182 183.805 276.585 184.101 275.985 184.394C271.41 186.632 266.743 188.698 261.996 190.584C245.151 197.276 227.287 201.71 208.843 203.578C203.429 204.126 197.964 204.454 192.46 204.552C179.68 204.781 166.69 203.775 153.63 201.438C144.617 199.825 135.968 196.812 127.312 193.796C127.304 193.793 127.296 193.79 127.288 193.787C127.135 193.734 126.983 193.681 126.831 193.628C123.036 192.306 119.239 190.989 115.408 189.794C114.681 189.567 113.952 189.345 113.221 189.129C111.804 188.708 110.377 188.307 108.941 187.924C104.585 186.761 100.144 185.771 95.6251 184.963C76.9155 181.615 58.383 181.644 40.6537 184.615L34.7906 200.034C53.4133 195.808 73.1712 195.167 93.1589 198.744C97.293 199.484 101.353 200.389 105.333 201.45C107.321 201.981 109.29 202.551 111.239 203.159C114.329 204.123 117.758 205.315 121.412 206.586C130.517 209.752 141.018 213.404 151.164 215.219C171.139 218.794 190.985 219.459 210.254 217.507C235.575 214.942 259.866 207.863 282.137 196.97C297.734 189.341 312.344 179.839 325.627 168.7C336.959 159.198 347.329 148.503 356.524 136.76C385.49 102.862 429.795 83.1491 476.569 85.6569L481.771 71.9762C453.753 69.704 426.403 74.7554 402.018 85.7164C401.945 85.7489 401.873 85.7814 401.801 85.814C381.534 94.9593 363.323 108.189 348.488 124.691ZM495.725 35.2812C469.283 31.6908 443.253 33.5027 418.801 39.9044C405.975 43.2626 393.582 47.8838 381.792 53.6508C359.123 64.739 338.683 80.0628 321.667 98.7885C321.324 99.166 320.982 99.5449 320.642 99.9252C318.571 102.24 316.553 104.605 314.588 107.02C309.538 113.263 303.459 118.797 297.551 124.176L297.172 124.521C287.19 133.61 276.101 141.421 264.185 147.758C259.096 150.464 253.855 152.902 248.486 155.055C226.796 163.755 203.001 167.82 178.541 166.245C172.502 165.856 166.422 165.124 160.324 164.033C155.805 163.224 151.364 162.234 147.008 161.072C144.831 160.491 142.675 159.867 140.541 159.202C136.548 157.956 132.592 156.577 128.637 155.199C127.754 154.892 126.872 154.584 125.989 154.278C118.213 151.583 110.413 149.005 102.319 147.557C86.6385 144.751 71.0585 143.864 55.8204 144.729L61.2346 130.491C75.5645 130.099 90.14 131.155 104.785 133.776C113.573 135.349 122.627 138.299 130.811 141.118C132.075 141.553 133.318 141.986 134.537 142.41C138.191 143.68 141.619 144.873 144.71 145.837C146.659 146.445 148.628 147.014 150.616 147.545C154.596 148.607 158.656 149.512 162.79 150.251C166.293 150.878 169.789 151.376 173.273 151.747C216.306 156.33 257.55 141.666 287.746 114.17L288.126 113.824C294.176 108.316 299.439 103.488 303.703 98.2155L303.715 98.1998L303.728 98.184C323.315 74.1097 347.922 54.6329 375.64 41.0746C413.232 22.687 456.566 15.1801 500.824 21.8699L495.725 35.2812Z"></path>
    <path fill-rule="evenodd" clip-rule="evenodd" fill="#64b5f6" d="M148.434 0.915924C125.6 0.915925 105.141 15.0247 97.025 36.3677L61.2346 130.491L55.8204 144.729C71.0585 143.864 86.6385 144.751 102.319 147.557C110.413 149.005 118.213 151.583 125.989 154.278L130.811 141.118L148.304 93.3685C148.946 91.6167 151.425 91.62 152.062 93.3735L173.273 151.747L178.541 166.245C203.001 167.82 226.796 163.755 248.486 155.055L203.355 36.3676C195.239 15.0246 174.78 0.915923 151.946 0.915924L148.434 0.915924ZM113.221 189.129C111.804 188.708 110.377 188.307 108.941 187.924C104.585 186.761 100.144 185.771 95.6251 184.963C76.9155 181.615 58.383 181.644 40.6537 184.615L34.7906 200.034L0 291.528H51.2533C65.9402 291.528 79.0648 282.358 84.1172 268.568L113.221 189.129ZM215.69 268.481L192.46 204.552C197.964 204.454 203.429 204.126 208.843 203.578C227.287 201.71 245.151 197.276 261.996 190.584L300.38 291.528H248.585C233.864 291.528 220.717 282.316 215.69 268.481ZM410.51 259.383C403.132 278.786 384.533 291.612 363.774 291.612H353.366C332.608 291.612 314.009 278.786 306.631 259.383L277.778 183.506C291.682 176.531 304.727 167.955 316.632 157.972C323.207 152.459 329.435 146.516 335.268 140.177L358.57 204.306L402.018 85.7164C426.403 74.7554 453.753 69.704 481.771 71.9762L476.569 85.6569L410.51 259.383ZM297.172 124.521C287.19 133.61 276.101 141.421 264.185 147.758L208.38 1.00002L263.678 1.00002C276.296 1.00002 287.565 8.89532 291.874 20.7545L320.642 99.9252C318.571 102.24 316.553 104.605 314.588 107.02C309.538 113.263 303.459 118.797 297.551 124.176L297.172 124.521ZM495.725 35.2812C469.283 31.6908 443.253 33.5027 418.801 39.9044L425.845 20.6798C430.175 8.85943 441.425 1.00002 454.014 1.00002L508.76 1.00002L500.824 21.8699L495.725 35.2812Z"></path>
</svg>